<svg width="241" height="82" viewBox="0 0 241 82" fill="none" xmlns="http://www.w3.org/2000/svg">
<g clip-path="url(#clip0_5_10)">
<path d="M41.4333 0C39.4333 0 35.0333 0.533334 30.5 14.4C16.9 7.86667 13.9667 10.5333 12.5 12C11.1667 13.3333 8.36667 16.9333 15.0333 29.8667C0.899999 34.6667 0.5 39.4667 0.5 40.9333C0.5 42.2667 1.03333 47.2 14.9 51.8667C8.36667 65.0667 11.4333 68.8 12.5 69.7333C13.4333 70.6667 17.3 73.7333 30.3667 67.2C35.0333 81.3333 39.4333 81.6 41.4333 81.6C43.4333 81.6 47.8333 81.0667 52.3667 67.2C65.7 73.8667 69.0333 70.9333 70.3667 69.6C71.7 68.2667 74.5 64.6667 67.8333 51.7333C81.9667 46.9333 82.2333 42.1333 82.2333 40.6667C82.2333 39.3333 81.7 34.4 67.8333 29.7333C74.3667 16.4 71.3 12.6667 70.2333 11.7333C69.3 10.8 65.4333 7.73333 52.3667 14.2667C47.4333 0.266666 43.4333 0 41.4333 0ZM16.1 15.6C16.5 15.2 17.9667 13.2 29.4333 17.8667C29.4333 18 29.3 18.2667 29.3 18.4C27.7 24.4 24.1 27.2 19.0333 28.6667C18.7667 28.8 18.5 28.8 18.2333 28.9333C13.4333 17.7333 15.5667 16.1333 16.1 15.6ZM50.1 19.3333C50.2333 19.3333 50.3667 19.2 50.5 19.2C50.6333 19.3333 50.6333 19.6 50.7667 19.7333C53.1667 25.7333 56.9 29.6 62.9 31.8667C63.0333 31.8667 63.1667 32 63.3 32C63.1667 32.1333 63.1667 32.4 63.0333 32.5333C60.3667 38.4 60.2333 43.8667 63.0333 49.7333C63.0333 49.8667 63.1667 50 63.1667 50.1333C63.0333 50.2667 62.7667 50.2667 62.6333 50.4C56.6333 52.6667 52.6333 56.4 50.5 62.5333C50.5 62.6667 50.3667 62.8 50.3667 62.9333C50.2333 62.8 49.9667 62.8 49.8333 62.6667C43.9667 60 38.5 60 32.6333 62.6667C32.5 62.6667 32.3667 62.8 32.2333 62.8C32.1 62.6667 32.1 62.4 31.9667 62.2667C29.7 56.2667 25.8333 52.4 19.8333 50.1333C19.7 50.1333 19.5667 50 19.4333 50C19.5667 49.8667 19.5667 49.6 19.7 49.4667C22.3667 43.6 22.5 38.1333 19.7 32.2667C19.7 32.1333 19.5667 32 19.5667 31.8667C19.7 31.7333 19.9667 31.7333 20.1 31.6C26.1 29.3333 30.1 25.6 32.2333 19.4667C32.2333 19.3333 32.3667 19.2 32.3667 19.0667C32.5 19.2 32.7667 19.2 32.9 19.3333C38.7667 21.8667 44.2333 22 50.1 19.3333ZM5.56667 40.9333C5.56667 40.2667 5.16667 37.7333 16.5 33.0667C16.6333 33.2 16.7667 33.4667 16.9 33.6C19.9667 38.9333 19.4333 43.4667 16.9 48.1333C16.7667 48.4 16.6333 48.5333 16.5 48.8C5.3 44.1333 5.56667 41.4667 5.56667 40.9333ZM16.1 66.1333C15.5667 65.6 13.5667 64.1333 18.2333 52.8C18.5 52.8 18.6333 52.9333 18.9 52.9333C24.9 54.5333 27.7 58.1333 29.1667 63.2C29.3 63.4667 29.3 63.7333 29.4333 63.8667C18.2333 68.6667 16.5 66.6667 16.1 66.1333ZM41.4333 76.6667C40.7667 76.6667 38.3667 77.3333 33.5667 65.6C33.7 65.4667 33.9667 65.3333 34.1 65.3333C39.4333 62.2667 43.9667 62.8 48.6333 65.3333C48.9 65.4667 49.1667 65.6 49.3 65.7333C44.9 76.9333 41.9667 76.6667 41.4333 76.6667ZM66.6333 66.1333C66.2333 66.5333 64.9 68.6667 53.3 64C53.3 63.7333 53.4333 63.6 53.4333 63.3333C55.0333 57.3333 58.6333 54.5333 63.7 53.0667C63.9667 52.9333 64.2333 52.9333 64.5 52.8C69.3 63.8667 67.0333 65.7333 66.6333 66.1333ZM77.1667 40.9333C77.1667 41.6 77.5667 44.1333 66.2333 48.8C66.1 48.6667 65.9667 48.4 65.9667 48.2667C62.9 42.9333 63.4333 38.4 65.9667 33.7333C66.1 33.4667 66.2333 33.3333 66.3667 33.0667C77.4333 37.6 77.1667 40.2667 77.1667 40.9333ZM66.6333 15.6C67.1667 16.1333 69.1667 17.6 64.5 28.9333C64.2333 28.9333 64.1 28.8 63.8333 28.8C57.8333 27.2 55.1667 23.6 53.5667 18.5333C53.4333 18.2667 53.4333 18 53.3 17.8667C64.5 13.0667 66.2333 15.0667 66.6333 15.6ZM49.3 16.1333C49.1667 16.2667 48.9 16.2667 48.7667 16.4C43.4333 19.4667 38.9 18.8 34.2333 16.4C33.9667 16.2667 33.8333 16.1333 33.5667 16C37.9667 4.66667 40.6333 5.06667 41.4333 5.06667C41.9667 5.06667 44.3667 4.8 49.3 16.1333Z" fill="url(#paint0_linear_5_10)"/>
<path fill-rule="evenodd" clip-rule="evenodd" d="M109.433 53.3333C109.433 54 109.967 54.6666 110.633 54.6666H131.3C131.433 54.6666 131.433 54.5333 131.433 54.5333V52.6666C131.433 52.5333 131.3 52.5333 131.3 52.5333H112.233C111.967 52.5333 111.833 52.3999 111.833 52.1333V41.7333C111.833 41.4666 111.967 41.3333 112.233 41.3333H130.1C130.233 41.3333 130.233 41.2 130.233 41.2V39.4666C130.233 39.3333 130.1 39.3333 130.1 39.3333H112.233C111.967 39.3333 111.833 39.2 111.833 38.9333V30.1333C111.833 29.8666 111.967 29.7333 112.233 29.7333H131.033C131.167 29.3333 131.167 29.3333 131.167 29.2V27.3333C131.167 27.2 131.033 27.2 131.033 27.2H110.633C109.967 27.2 109.433 27.7333 109.433 28.5333V53.3333Z" fill="white"/>
<path fill-rule="evenodd" clip-rule="evenodd" d="M143.833 54.5333H164.5C164.633 54.5333 164.633 54.3999 164.633 54.3999V52.5333C164.633 52.4 164.5 52.4 164.5 52.4H145.3C145.033 52.4 144.9 52.2666 144.9 52V27.3333C144.9 27.2 144.767 27.2 144.767 27.2H142.767C142.633 27.2 142.633 27.3333 142.633 27.3333V53.3333C142.5 54 143.167 54.5333 143.833 54.5333Z" fill="white"/>
<path fill-rule="evenodd" clip-rule="evenodd" d="M217.567 44.5333L224.9 29.9999C225.033 29.8666 225.167 29.7333 225.3 29.7333C225.433 29.7333 225.567 29.7333 225.7 29.9999L233.033 44.5333C233.167 44.6666 233.033 44.7999 233.033 44.9333C232.9 45.0666 232.767 45.1999 232.633 45.1999H217.967C217.833 45.1999 217.7 45.0666 217.567 44.9333C217.433 44.7999 217.433 44.6666 217.567 44.5333ZM216.367 47.3333H234.233C234.367 47.3333 234.5 47.4666 234.633 47.5999L238.1 54.5333L238.233 54.6666H240.367C240.367 54.6666 240.5 54.6666 240.5 54.5333V54.3999L227.3 28.6666C227.167 28.5333 226.633 27.3333 225.167 27.3333C223.7 27.3333 223.033 28.6666 223.033 28.6666L209.833 54.5333V54.6666L209.967 54.7999H212.1C212.233 54.7999 212.233 54.7999 212.233 54.6666L215.7 47.7332C215.967 47.3333 216.1 47.3333 216.367 47.3333Z" fill="white"/>
<path fill-rule="evenodd" clip-rule="evenodd" d="M198.367 44.9333C197.967 44.2667 197.433 43.6 196.767 43.0667C196.1 42.5333 195.3 42 194.367 41.6C193.433 41.2 192.5 40.8 191.567 40.5333C190.633 40.2667 189.567 39.8667 188.5 39.6C187.433 39.3333 186.367 39.0667 185.433 38.8C184.5 38.5333 183.567 38.2667 182.633 37.8667C181.7 37.6 181.033 37.2 180.367 36.8C179.7 36.4 179.167 36 178.767 35.4667C178.367 34.9333 178.233 34.4 178.233 33.7333C178.233 32.9333 178.367 32.2667 178.9 31.7333C179.3 31.2 179.967 30.6667 180.633 30.2667C181.433 29.8667 182.367 29.7333 183.433 29.4667C184.5 29.3333 185.7 29.2 187.167 29.2H196.767H196.9V29.0667V27.2C196.9 27.0667 196.767 27.0667 196.767 27.0667H196.5H187.033C186.1 27.0667 183.3 27.2 181.7 27.6C180.9 27.7333 180.1 28.1333 179.3 28.4C178.633 28.8 177.967 29.2 177.433 29.7333C176.9 30.2667 176.5 30.8 176.1 31.4667C175.833 32.1333 175.567 32.9333 175.567 33.8667C175.567 34.8 175.7 35.6 176.1 36.2667C176.5 36.9333 177.033 37.6 177.7 38.1333C178.367 38.6667 179.167 39.0667 180.1 39.4667C181.033 39.8667 181.967 40.2667 182.9 40.5333C183.833 40.8 184.9 41.0667 185.967 41.3333C187.033 41.6 188.1 41.8667 189.033 42.1333C189.967 42.4 191.033 42.6667 191.833 43.0667C192.767 43.3333 193.433 43.7333 194.1 44.1333C194.767 44.5333 195.3 45.0667 195.7 45.6C196.1 46.1333 196.233 46.8 196.233 47.4667C196.233 48.4 195.967 49.0667 195.567 49.7333C195.033 50.4 194.367 50.8 193.567 51.2C192.633 51.6 191.567 51.7333 190.5 52C189.433 52.1333 188.1 52.2667 186.633 52.2667H175.833C175.7 52.2667 175.7 52.4 175.7 52.4V54.2667C175.7 54.4 175.833 54.4 175.833 54.4H186.5C187.433 54.4 188.367 54.4 189.3 54.2667C190.233 54.1333 191.167 54 192.1 53.8667H192.367C193.167 53.7333 193.967 53.4667 194.767 53.2C195.567 52.8 196.233 52.4 196.9 51.8667C197.567 51.3333 197.967 50.6667 198.367 50C198.767 49.2 198.9 48.4 198.9 47.3333C198.9 46.4 198.767 45.6 198.367 44.9333Z" fill="white"/>
</g>
<defs>
<linearGradient id="paint0_linear_5_10" x1="41.3652" y1="81.7371" x2="41.3652" y2="0" gradientUnits="userSpaceOnUse">
<stop stop-color="#007DCD"/>
<stop offset="0.5028" stop-color="#46DF83"/>
<stop offset="1" stop-color="#FFCF71"/>
</linearGradient>
<clipPath id="clip0_5_10">
<rect width="240" height="81.7333" fill="white" transform="translate(0.5)"/>
</clipPath>
</defs>
</svg>
